<svg version="1.1" xmlns="http://www.w3.org/2000/svg" xmlns:xlink="http://www.w3.org/1999/xlink" width="120.17876" height="56.45107" viewBox="0,0,120.17876,56.45107"><g transform="translate(-179.91062,-151.77439)"><g data-paper-data="{&quot;isPaintingLayer&quot;:true}" fill="#e78826" fill-rule="evenodd" stroke="none" stroke-width="1" stroke-linecap="square" stroke-linejoin="miter" stroke-miterlimit="10" stroke-dasharray="" stroke-dashoffset="0" style="mix-blend-mode: normal"><path d="M200.40935,151.98663c0.16124,1.94145 0.28135,3.71672 0.36032,5.32582c0.08226,1.6058 0.12339,3.08493 0.12339,4.43736c0,1.83944 -0.06581,3.60814 -0.19743,5.30608c-0.12834,1.69795 -0.39487,3.26098 -0.79962,4.68909c-0.40474,1.42483 -0.99211,2.66867 -1.76211,3.73153c-0.76671,1.05957 -1.78186,1.88222 -3.04544,2.46795c-1.26358,0.58572 -2.83649,0.87858 -4.71871,0.87858c-1.93816,0 -3.54397,-0.30931 -4.81742,-0.92795c-1.27346,-0.61534 -2.29025,-1.46267 -3.05038,-2.54198c-0.75683,-1.08261 -1.32282,-2.33139 -1.69794,-3.74634c-0.37513,-1.41495 -0.61863,-2.93027 -0.73051,-4.54595c-0.10859,-1.61897 -0.16288,-3.25769 -0.16288,-4.91614c0,-1.87893 0.06088,-3.71343 0.18263,-5.50352c0.12175,-1.79008 0.25338,-3.29059 0.39487,-4.50153l5.57755,0.3307c-0.20072,1.47747 -0.35703,2.797 -0.46891,3.95858c-0.11188,1.16158 -0.18921,2.25899 -0.23199,3.29224c-0.03949,1.02995 -0.05923,2.09118 -0.05923,3.18365c0,0.84897 0.01481,1.76375 0.04442,2.74435c0.0329,0.9806 0.12504,1.95132 0.27641,2.91217c0.15137,0.95756 0.39323,1.82628 0.72558,2.60615c0.33564,0.77658 0.81113,1.40344 1.42647,1.88057c0.61863,0.47384 1.41166,0.71077 2.3791,0.71077c1.05299,0 1.9069,-0.23693 2.56173,-0.71077c0.65812,-0.47714 1.16816,-1.11387 1.53013,-1.91019c0.36526,-0.79961 0.6285,-1.68972 0.78974,-2.67031c0.16453,-0.98059 0.2616,-1.98093 0.29122,-3.00102c0.02961,-1.02008 0.04442,-1.98587 0.04442,-2.89736c0,-1.71769 -0.051,-3.38437 -0.15301,-5.00005c-0.09872,-1.61897 -0.22869,-3.3383 -0.38993,-5.158l5.57755,-0.42448z"/><path d="M211.17566,166.7548c0.86872,0 1.69136,0.00987 2.46795,0.02961c0.77987,0.01974 1.45279,0.04936 2.01877,0.08885l-0.05923,4.2498c-0.50675,0 -1.05299,-0.00494 -1.63871,-0.01481c-0.58572,-0.00988 -1.20271,-0.01481 -1.85095,-0.01481c-1.2932,0 -2.60779,0.01481 -3.94378,0.04442c-1.33269,0.02962 -2.53375,0.08556 -3.60319,0.16783l-0.09378,-4.30903c0.80948,-0.08226 1.81969,-0.14314 3.03063,-0.18262c1.21423,-0.03949 2.43833,-0.05923 3.6723,-0.05923z"/><path d="M233.06895,151.98663c1.78021,0 3.4831,0.04113 5.10864,0.1234c1.62884,0.07897 3.19188,0.19908 4.68909,0.36032l-0.02961,5.24685c-1.41496,-0.22376 -2.94673,-0.38007 -4.59531,-0.46891c-1.64859,-0.09214 -3.33172,-0.13821 -5.04941,-0.13821c-0.10201,1.37546 -0.19415,2.90724 -0.27641,4.59531c-0.07897,1.68807 -0.11846,3.49296 -0.11846,5.41467c0,1.71769 0.04442,3.52751 0.13327,5.42947c0.09213,1.89868 0.20895,3.89935 0.35044,6.00204l-5.4887,0.15301c-0.14149,-1.76046 -0.23692,-3.46828 -0.28628,-5.12345c-0.04936,-1.65846 -0.07404,-3.22642 -0.07404,-4.7039c0,-2.44491 0.04936,-4.64302 0.14807,-6.59434c0.10201,-1.95132 0.20402,-3.63446 0.30602,-5.04941v0c-1.74072,0.09872 -3.43044,0.23034 -5.06915,0.39487c-1.63542,0.16124 -3.15074,0.37348 -4.54595,0.63673l0.05923,-5.06422c2.36593,-0.42449 4.79274,-0.73216 7.28043,-0.92301c2.48768,-0.19415 4.97373,-0.29122 7.45812,-0.29122z"/><path d="M257.87745,157.08047c-1.35571,0 -2.4992,0.2435 -3.43044,0.73051c-0.92795,0.48372 -1.67491,1.13525 -2.24089,1.95461c-0.56598,0.81936 -0.97072,1.73414 -1.21422,2.74435c-0.24022,1.01021 -0.36032,2.05169 -0.36032,3.12442c0,1.0497 0.20072,2.0451 0.60217,2.98621c0.40475,0.93782 0.95591,1.76705 1.65352,2.48769c0.6976,0.71735 1.50051,1.28333 2.40872,1.69794c0.91149,0.41462 1.88386,0.62192 2.91711,0.62192c1.21094,0 2.33138,-0.2978 3.36133,-0.8934c1.03325,-0.59889 1.86248,-1.53506 2.48769,-2.80852c0.6285,-1.27346 0.94275,-2.93191 0.94275,-4.97537c0,-1.75717 -0.34386,-3.20175 -1.0316,-4.33371c-0.68773,-1.13196 -1.57783,-1.97106 -2.67031,-2.5173c-1.08919,-0.54624 -2.23103,-0.81935 -3.42551,-0.81935zM257.60598,152.04586c2.16192,0 4.04084,0.37019 5.63678,1.11057c1.59923,0.7371 2.91382,1.72263 3.94378,2.9566c1.03325,1.23068 1.8016,2.62424 2.30506,4.1807c0.50674,1.55645 0.76012,3.15403 0.76012,4.79274c0,1.96119 -0.2945,3.76115 -0.88353,5.39986c-0.58572,1.63542 -1.41495,3.05531 -2.48768,4.25967c-1.06944,1.20106 -2.3429,2.12572 -3.82039,2.77397c-1.47418,0.64825 -3.08986,0.97236 -4.84703,0.97236c-1.90197,0 -3.63118,-0.3488 -5.18762,-1.04641c-1.55645,-0.6976 -2.90065,-1.66339 -4.03261,-2.89736c-1.13196,-1.23397 -2.00233,-2.63905 -2.61108,-4.21525c-0.60547,-1.57619 -0.9082,-3.24452 -0.9082,-5.00499c0,-1.61569 0.24186,-3.20668 0.72557,-4.77301c0.48701,-1.56961 1.22574,-2.99608 2.21621,-4.27941c0.99047,-1.28333 2.24912,-2.30835 3.77595,-3.07506c1.52684,-0.77 3.33173,-1.15499 5.41467,-1.15499z"/><path d="M278.9243,151.77439c0.99047,0 1.82956,0.25831 2.5173,0.77493c0.68773,0.51333 1.24878,1.13361 1.68314,1.86083c0.43436,0.72722 0.75189,1.42482 0.95263,2.09282c0.52649,1.57619 0.97072,3.15403 1.33268,4.73351c0.36526,1.57619 0.68939,3.08163 0.97238,4.51634c0.20402,-1.0497 0.43764,-2.15534 0.7009,-3.31692c0.26324,-1.16487 0.52485,-2.26721 0.7848,-3.30704c0.26325,-1.04312 0.50676,-1.90855 0.73051,-2.59628c1.02995,-3.17213 2.61766,-4.75819 4.76312,-4.75819c1.1912,0 2.20142,0.42942 3.03064,1.28826c0.82924,0.85885 1.43634,2.09775 1.82135,3.71672c0.18097,0.72722 0.3669,1.78843 0.55775,3.18365c0.19414,1.39521 0.37677,3.04873 0.54788,4.96056c0.17111,1.90854 0.32248,4.01617 0.4541,6.32287c0.13163,2.30341 0.23692,4.74832 0.3159,7.33473l-5.3357,-0.11846c0,-1.07273 -0.02632,-2.31658 -0.07897,-3.73153c-0.04935,-1.41495 -0.1201,-2.88585 -0.21224,-4.41268c-0.08884,-1.52684 -0.1892,-3.01747 -0.30108,-4.47191c-0.10859,-1.45774 -0.21882,-2.77232 -0.3307,-3.94377c-0.11188,-1.17146 -0.21882,-2.10598 -0.32083,-2.80359c-0.09872,-0.6976 -0.18921,-1.04641 -0.27148,-1.04641c-0.01974,0 -0.12669,0.35868 -0.32083,1.07603c-0.19086,0.71735 -0.42285,1.67326 -0.69597,2.86775c-0.27312,1.19119 -0.57091,2.50414 -0.89339,3.93883c-0.32248,1.4347 -0.64167,2.87598 -0.95756,4.32384c-0.31262,1.44456 -0.59066,2.7789 -0.83417,4.003c-0.24022,1.22081 -0.43106,2.21621 -0.57256,2.98621l-4.76314,0.11846c-0.2435,-1.13197 -0.53144,-2.3791 -0.86378,-3.7414c-0.33235,-1.3656 -0.67622,-2.76081 -1.0316,-4.18563c-0.35209,-1.42483 -0.7009,-2.79864 -1.04641,-4.12146c-0.34222,-1.32611 -0.66141,-2.51401 -0.95756,-3.56371c-0.29287,-1.05299 -0.52979,-1.88715 -0.71077,-2.5025c-0.18098,-0.61863 -0.29122,-0.92795 -0.3307,-0.92795c-0.08226,0 -0.16946,0.4393 -0.26161,1.31788c-0.08884,0.87859 -0.17439,2.06649 -0.25666,3.56371c-0.07897,1.49722 -0.14479,3.18694 -0.19744,5.06915c-0.04936,1.87893 -0.07403,3.81873 -0.07403,5.81941c0,0.95098 0.00493,1.81969 0.01481,2.60615c0.00986,0.78974 0.02468,1.43634 0.04442,1.9398l-5.3357,0.03455c-0.06252,-2.00397 -0.09378,-3.92568 -0.09378,-5.76511c0,-3.31363 0.10037,-6.31465 0.30109,-9.00306c0.20402,-2.69171 0.49853,-4.97702 0.88353,-6.85595c0.18098,-0.86872 0.43764,-1.70782 0.77,-2.5173c0.33564,-0.80948 0.81113,-1.4709 1.42646,-1.98422c0.61864,-0.51662 1.43305,-0.77493 2.44327,-0.77493z"/><path d="M193.52627,186.24103c-0.52649,0 -1.0678,0.01974 -1.62391,0.05922c-0.55282,0.03949 -1.10234,0.09049 -1.64858,0.15302c-0.102,1.06943 -0.18427,2.23102 -0.24679,3.48473c-0.05923,1.25372 -0.10859,2.53705 -0.14808,3.85c0.74696,0.06252 1.52519,0.09378 2.33467,0.09378c4.85033,0 7.2755,-1.43635 7.2755,-4.30903c0,-1.13196 -0.48536,-1.96942 -1.45608,-2.51237c-0.96743,-0.54624 -2.46301,-0.81935 -4.48672,-0.81935zM193.67928,181.26566c0.62521,0 1.39685,0.051 2.31493,0.15301c0.92136,0.09872 1.87235,0.30602 2.85294,0.62192c0.98059,0.3126 1.89538,0.78316 2.74435,1.41166c0.85226,0.62521 1.54493,1.46925 2.078,2.53211c0.53637,1.05957 0.80455,2.38732 0.80455,3.98325c0,1.65847 -0.36361,3.03887 -1.09083,4.14121c-0.72722,1.10235 -1.68808,1.98258 -2.88256,2.6407c-1.19119,0.65483 -2.50579,1.12374 -3.94377,1.40673c-1.4347,0.283 -2.84965,0.42449 -4.24486,0.42449c-0.88846,0 -1.73743,-0.03949 -2.54691,-0.11845c-0.01974,0.96743 -0.02962,1.92664 -0.02962,2.87762c0,1.29319 0.00987,2.49097 0.02962,3.59332c0.01974,1.10235 0.06087,2.06814 0.1234,2.89736l-5.12345,0.12341c-0.02303,-0.64825 -0.03455,-1.30143 -0.03455,-1.95955c0,-0.65483 0,-1.30636 0,-1.95462c0,-2.9714 0.06088,-5.85725 0.18263,-8.65754c0.12175,-2.80029 0.26325,-5.4739 0.42449,-8.02081v0c-0.80619,0.20072 -1.48241,0.39322 -2.02865,0.57749l-1.18461,-4.85197c0.99047,-0.30602 2.03688,-0.57421 3.13923,-0.80455c1.10235,-0.23363 2.1833,-0.42613 3.24288,-0.5775c1.06286,-0.15137 2.04346,-0.2616 2.94179,-0.3307c0.90162,-0.0724 1.64529,-0.10859 2.23102,-0.10859z"/><path d="M219.69813,186.54212c-1.35572,0 -2.4992,0.2435 -3.43044,0.73051c-0.92795,0.48372 -1.67492,1.13526 -2.2409,1.95462c-0.56598,0.81935 -0.97072,1.73413 -1.21423,2.74435c-0.24021,1.0102 -0.36032,2.05168 -0.36032,3.12441c0,1.0497 0.20073,2.04512 0.60218,2.98622c0.40474,0.93782 0.95592,1.76704 1.65352,2.48769c0.69761,0.71734 1.50051,1.28332 2.40872,1.69794c0.91149,0.41461 1.88386,0.62192 2.91711,0.62192c1.21094,0 2.33138,-0.29781 3.36134,-0.8934c1.03325,-0.59889 1.86248,-1.53506 2.48769,-2.80852c0.6285,-1.27346 0.94275,-2.93191 0.94275,-4.97537c0,-1.75718 -0.34386,-3.20175 -1.0316,-4.33371c-0.68773,-1.13196 -1.57783,-1.97107 -2.67032,-2.5173c-1.08919,-0.54624 -2.23102,-0.81936 -3.4255,-0.81936zM219.42666,181.50752c2.16192,0 4.04085,0.37019 5.63678,1.11058c1.59923,0.73709 2.91382,1.72262 3.94377,2.95659c1.03325,1.23068 1.8016,2.62424 2.30506,4.18069c0.50675,1.55646 0.76013,3.15403 0.76013,4.79275c0,1.9612 -0.29451,3.76115 -0.88352,5.39987c-0.58572,1.63542 -1.41495,3.05531 -2.48769,4.25966c-1.06944,1.20106 -2.3429,2.12573 -3.82037,2.77396c-1.47419,0.64825 -3.08987,0.97238 -4.84704,0.97238c-1.90196,0 -3.63117,-0.34881 -5.18762,-1.04641c-1.55645,-0.69761 -2.90065,-1.6634 -4.03262,-2.89737c-1.13196,-1.23397 -2.00232,-2.63905 -2.61108,-4.21525c-0.60547,-1.5762 -0.9082,-3.24452 -0.9082,-5.00499c0,-1.61567 0.24186,-3.20668 0.72558,-4.773c0.48701,-1.56961 1.22574,-2.99608 2.21621,-4.27941c0.99047,-1.28333 2.24912,-2.30836 3.77595,-3.07506c1.52684,-0.77 3.33172,-1.15499 5.41467,-1.15499z"/><path d="M235.46852,181.56675l5.57755,0.09378c-0.22047,1.4347 -0.38664,3.12277 -0.49852,5.06422c-0.11188,1.94145 -0.16782,4.1445 -0.16782,6.60916c0,2.50743 0.04607,5.02473 0.13821,7.55189c0.09213,2.52718 0.19743,4.84211 0.31589,6.94479l-5.12345,0.18263c-0.16124,-1.05299 -0.2978,-2.32644 -0.40968,-3.82037c-0.11188,-1.49722 -0.1925,-3.12442 -0.24186,-4.88159c-0.04936,-1.76048 -0.07404,-3.55055 -0.07404,-5.37025c0,-2.28366 0.03949,-4.50646 0.11846,-6.66838c0.08226,-2.16521 0.20402,-4.06717 0.36526,-5.70588z"/><path d="M267.85662,181.50751c0.03949,0.99047 0.06415,2.29025 0.07403,3.89935c0.00988,1.6058 0.01481,3.30869 0.01481,5.10864c0,1.59594 -0.00986,3.19845 -0.02961,4.80756c-0.01974,1.60581 -0.06087,3.08657 -0.12339,4.44229c-0.05924,1.35243 -0.14972,2.47452 -0.27148,3.36627c-0.22047,1.73743 -0.66469,3.02076 -1.33268,3.84998c-0.66799,0.82924 -1.60746,1.24385 -2.8184,1.24385c-0.99047,0 -1.89538,-0.34386 -2.71474,-1.0316c-0.81936,-0.68773 -1.70452,-1.81969 -2.6555,-3.39589c-0.64496,-1.09247 -1.3985,-2.35113 -2.26064,-3.77595c-0.85885,-1.42483 -1.74894,-2.8842 -2.67031,-4.37813c-0.91808,-1.49722 -1.8016,-2.92369 -2.65057,-4.27941c-0.16125,2.36593 -0.28299,4.72693 -0.36526,7.08299c-0.07897,2.35277 -0.11846,4.48015 -0.11846,6.38211c0,0.60547 0,1.17639 0,1.71275c0,0.53637 0.00987,1.03655 0.02961,1.50052l-5.39985,0.09378c0,-3.15568 0.04607,-6.00204 0.13821,-8.53909c0.09213,-2.53704 0.21388,-4.85197 0.36526,-6.94479c0.15136,-2.09282 0.32248,-4.04414 0.51333,-5.85396c0.19415,-1.80983 0.38171,-3.54232 0.56269,-5.19749l5.21723,0.21224c-0.08227,0.62521 -0.1744,1.30143 -0.27641,2.02865c0.68773,0.93124 1.44128,1.9941 2.26063,3.18859c0.81936,1.19119 1.65847,2.44984 2.5173,3.77595c0.85885,1.32282 1.70289,2.64727 2.53212,3.97339c0.82922,1.32281 1.61732,2.5864 2.36428,3.79076c0.75026,1.20106 1.40837,2.27543 1.97435,3.22313c0.14149,-1.39521 0.21224,-3.3564 0.21224,-5.88358c0,-1.29321 -0.02138,-2.62589 -0.06417,-3.99807c-0.03949,-1.37546 -0.09048,-2.69499 -0.15301,-3.95857c-0.05924,-1.2636 -0.13986,-2.39556 -0.24187,-3.3959c-0.09871,-1.00362 -0.20895,-1.78843 -0.33071,-2.35442l5.70096,-0.69596z"/><path d="M286.01948,181.44828c1.78021,0 3.48309,0.04114 5.10865,0.1234c1.62884,0.07897 3.19187,0.19908 4.68908,0.36032l-0.02961,5.24685c-1.41495,-0.22376 -2.94672,-0.38006 -4.59531,-0.46891c-1.64858,-0.09213 -3.33172,-0.13821 -5.04941,-0.13821c-0.10199,1.37546 -0.19414,2.90725 -0.2764,4.59531c-0.07897,1.68807 -0.11846,3.49296 -0.11846,5.41467c0,1.71768 0.04442,3.52751 0.13327,5.42947c0.09213,1.89868 0.20895,3.89936 0.35044,6.00204l-5.4887,0.15302c-0.14149,-1.76046 -0.23692,-3.46828 -0.28629,-5.12346c-0.04935,-1.65846 -0.07403,-3.22643 -0.07403,-4.7039c0,-2.44491 0.04935,-4.64303 0.14807,-6.59434c0.10201,-1.95132 0.20402,-3.63446 0.30602,-5.04942v0c-1.74073,0.09872 -3.43044,0.23035 -5.06916,0.39487c-1.63542,0.16125 -3.15073,0.37349 -4.54595,0.63673l0.05924,-5.06422c2.36593,-0.42449 4.79275,-0.73215 7.28043,-0.92301c2.48769,-0.19415 4.97373,-0.29122 7.45813,-0.29122z"/></g></g></svg>