<svg version="1.1" xmlns="http://www.w3.org/2000/svg" xmlns:xlink="http://www.w3.org/1999/xlink" width="187.42046" height="35.77995" viewBox="0,0,187.42046,35.77995"><g transform="translate(-146.28977,-162.11002)"><g data-paper-data="{&quot;isPaintingLayer&quot;:true}" fill-rule="evenodd" stroke="none" stroke-width="1" stroke-linecap="square" stroke-linejoin="miter" stroke-miterlimit="10" stroke-dasharray="" stroke-dashoffset="0" style="mix-blend-mode: normal"><path d="M146.28977,179.80822c0,-9.77444 7.92375,-17.6982 17.6982,-17.6982h152.02406c9.77444,0 17.6982,7.92375 17.6982,17.6982v0v0.38357c0,4.69385 -1.86463,9.19546 -5.18368,12.51451c-3.31907,3.31905 -7.82066,5.18368 -12.51452,5.18368h-152.02406c-9.77444,0 -17.6982,-7.92376 -17.6982,-17.69819v0z" fill="#b7b7b7"/><path d="M173.67357,169.76461c0.86355,0.80599 1.72711,1.75589 2.59066,2.84973l-1.12262,0.94991c-0.86355,-1.1514 -1.69832,-2.10131 -2.50431,-2.84972l1.03627,-0.94991zM171.08291,170.54181c0.80598,0.69084 1.61197,1.61197 2.41795,2.76337l-1.12262,0.86355c-0.92112,-1.32412 -1.66954,-2.21646 -2.24524,-2.67702l0.94991,-0.94991zM164.76297,171.05035c0.37527,0 0.40939,0.20469 0.10235,0.61408l0.69084,3.36786l6.30394,-0.86355l0.34542,1.81346l-6.13123,0.7772l0.86355,4.0587l8.1174,-0.94991l0.34542,1.81346l-8.03105,0.86355l1.64075,6.99478l-1.89981,0.43178l-1.64075,-7.1675l-8.80824,1.03627l-0.25907,-1.81346l8.63553,-0.94991l-0.86355,-4.0587l-5.87216,0.69084l-0.34542,-1.81346l5.69945,-0.60449l-0.86355,-3.97234l1.81346,-0.25907c0.05757,-0.00639 0.10981,-0.0096 0.15672,-0.0096z" fill="#ffffff"/><path d="M192.15362,173.39154l0.94991,0.86355c-0.23028,7.65684 -4.2602,12.55031 -12.08975,14.68042l-1.5544,-1.89982c7.19628,-1.66953 10.96713,-5.49796 11.31255,-11.48526h-12.9533v-1.89982h13.12601l1.20898,-0.25906z" fill="#ffffff"/><path d="M198.97568,171.9235c0.69084,0.05757 0.77719,0.28785 0.25906,0.69085v5.44038c2.82094,0.80599 5.67067,1.89982 8.54918,3.2815l-1.03627,1.98618c-3.05122,-1.5544 -5.55553,-2.59066 -7.51291,-3.1088v8.98095h-1.98617v-17.27107z" fill="#ffffff"/><path d="M224.10508,175.37772v12.34881h-1.98617v-0.94991h-12.00339v-1.89982h12.00339v-7.59927h-12.00339v-1.89981z" fill="#ffffff"/><path d="M246.73018,179.43642v1.89981h-19.25724v-1.89981z" fill="#ffffff"/><path d="M262.79227,173.21883l-1.12261,0.86355c-0.74842,-0.97869 -1.69833,-1.9286 -2.84973,-2.84972l1.12262,-0.86355c0.97869,0.69084 1.92859,1.64075 2.84972,2.84972zM260.71974,174.85958l-1.12261,0.86355c-0.9787,-1.20898 -1.95738,-2.18767 -2.93608,-2.93608l1.12262,-0.86355c0.97869,0.74841 1.95738,1.72711 2.93607,2.93608zM251.99786,171.9235c0.69085,0.05757 0.7772,0.28785 0.25907,0.69085v5.44038c2.82094,0.80599 5.67067,1.89982 8.54918,3.2815l-1.03627,1.98618c-3.05122,-1.5544 -5.55552,-2.59066 -7.51291,-3.1088v8.98095h-1.98618v-17.27107z" fill="#ffffff"/><path d="M271.51417,170.62817l1.64075,0.43178c0.5757,0.23028 0.5757,0.46056 0,0.69085c-0.23029,0.74841 -0.48935,1.49682 -0.7772,2.24524c2.07253,-0.17271 4.05869,-0.40299 5.95852,-0.69084l0.25906,1.81346c-2.24524,0.17271 -4.49047,0.34542 -6.73571,0.51814c-0.5757,1.1514 -1.1514,2.07252 -1.72711,2.76337c0.69083,-0.23028 1.35289,-0.34542 1.98616,-0.34542c0.74842,0 1.3529,0.23028 1.81346,0.69084c0.34542,0.34542 0.54692,0.9787 0.6045,1.89982c1.72711,-0.63327 3.68449,-1.29533 5.87217,-1.98617l0.60448,2.07253c-2.24524,0.34542 -4.34656,0.89233 -6.30394,1.64075v3.79964h-1.72711v-3.10879c-1.72711,0.80598 -2.84972,1.46803 -3.36786,1.98617c-0.63327,0.63327 -0.94991,1.26654 -0.94991,1.89982c0,0.34542 0.17271,0.69083 0.51813,1.03626c0.403,0.403 1.1802,0.6045 2.3316,0.6045h7.25385v1.64075h-7.3402c-1.84225,0 -3.13758,-0.37422 -3.886,-1.12262c-0.5757,-0.5757 -0.86355,-1.29533 -0.86355,-2.15888c0,-0.92113 0.37422,-1.75589 1.12262,-2.50431c1.1514,-1.1514 2.84973,-2.18767 5.09497,-3.1088c-0.05757,-0.69084 -0.2015,-1.1514 -0.43178,-1.38168c-0.23028,-0.23028 -0.71963,-0.34542 -1.46803,-0.34542c-1.1514,0 -2.9073,1.03626 -5.26768,3.1088l-1.46803,-1.46804c2.70579,-1.66953 4.54804,-3.51179 5.52674,-5.52674v0c-1.61197,0.11514 -3.22393,0.23028 -4.83591,0.34542l-0.34541,-1.72711c2.07252,-0.05757 4.02991,-0.14393 5.87215,-0.25907c0.28785,-0.69084 0.63327,-1.84225 1.03627,-3.45421z" fill="#ffffff"/><path d="M294.8301,171.75079v3.10879c0,5.52674 2.7058,9.70058 8.1174,12.52153l-1.20896,2.15888c-4.43291,-2.30281 -7.22507,-5.92973 -8.37647,-10.88077c-1.20898,5.58431 -4.11627,9.38395 -8.7219,11.3989l-1.03626,-1.98616c5.00861,-2.07254 7.7144,-6.07366 8.1174,-12.0034l1.12262,0.08635v-2.76337h-4.49048v-1.64075z" fill="#ffffff"/><path d="M315.90082,171.05994c0.5757,0.11515 0.60448,0.34542 0.08635,0.69085v3.71328h7.59927c-0.11515,4.60562 -0.23028,8.05983 -0.34542,10.36264c-0.11515,2.30281 -0.9787,3.45421 -2.59066,3.45421h-3.45421l-0.34542,-1.89981h2.93608c0.92113,0 1.41046,-0.46056 1.46803,-1.38169c0.11515,-1.66953 0.23028,-4.54804 0.34542,-8.63553h-5.69945c0,6.21758 -2.76338,10.39142 -8.29012,12.52153l-0.94991,-2.07253c4.54804,-1.55439 6.966,-5.03739 7.25385,-10.449h-6.21758v-1.89982h6.30393v-4.40412z" fill="#ffffff"/></g></g></svg>